<?xml version="1.0" standalone="no"?>
<!DOCTYPE svg PUBLIC "-//W3C//DTD SVG 20010904//EN"
 "http://www.w3.org/TR/2001/REC-SVG-20010904/DTD/svg10.dtd">
<svg version="1.0" xmlns="http://www.w3.org/2000/svg"
 width="239.9000000pt" height="47.0000000pt" viewBox="0 0 2399.000000 470.000000"
 preserveAspectRatio="xMidYMid meet">
<metadata>
Created by potrace 1.11, written by Peter Selinger 2001-2013
</metadata>
<g transform="translate(0.000000,470.000000) scale(0.100000,-0.100000)"
fill="#000000" stroke="none">
<path d="M1054 4630 c-10 -9 -56 -15 -174 -24 -41 -3 -100 -12 -130 -21 -30
-8 -64 -15 -75 -15 -11 0 -32 -6 -46 -14 -14 -7 -43 -16 -64 -20 -20 -4 -45
-11 -54 -16 -9 -5 -32 -12 -52 -15 -21 -3 -42 -12 -49 -20 -7 -8 -27 -15 -44
-15 -18 0 -41 -7 -52 -15 -10 -8 -29 -15 -41 -15 -21 0 -42 -13 -78 -47 -8 -7
-18 -13 -23 -13 -34 0 -45 -78 -16 -111 8 -8 14 -28 14 -42 0 -15 4 -27 9 -27
5 0 14 -12 20 -27 6 -16 24 -46 41 -68 16 -22 29 -48 30 -57 0 -10 4 -18 9
-18 8 0 24 -30 51 -95 4 -11 22 -60 40 -110 18 -49 40 -101 48 -115 14 -22 17
-80 18 -455 l2 -430 -142 0 c-118 0 -147 -3 -169 -18 -39 -25 -57 -58 -66
-118 -10 -59 -2 -79 30 -79 16 0 18 5 12 28 -14 50 -6 92 23 119 25 23 34 25
108 23 45 0 108 -4 140 -8 69 -8 89 -31 29 -34 -79 -3 -127 -16 -152 -39 -11
-11 -24 -19 -29 -19 -18 0 -53 -104 -53 -157 0 -87 35 -130 126 -152 101 -25
112 -32 128 -86 13 -42 23 -95 32 -165 1 -8 5 -33 8 -55 4 -22 8 -166 9 -320
l2 -280 -24 -45 c-14 -25 -28 -47 -32 -50 -4 -3 -8 -17 -10 -30 -2 -14 -10
-36 -18 -50 -7 -14 -17 -41 -21 -60 -18 -83 -70 -257 -83 -281 -9 -14 -13 -29
-10 -31 3 -3 -4 -32 -14 -64 -11 -33 -23 -75 -27 -94 -4 -19 -13 -45 -21 -57
-9 -14 -14 -50 -14 -100 0 -73 2 -79 25 -90 14 -6 27 -8 29 -5 2 4 2 34 1 67
-5 93 28 215 62 231 10 5 163 10 341 11 l322 2 1 -122 c1 -67 0 -137 -1 -155
-1 -28 2 -33 17 -30 14 3 18 13 18 48 0 25 -2 49 -4 55 -3 5 -6 59 -8 120 -1
60 -5 138 -7 172 -4 52 -2 64 12 72 15 8 396 16 579 12 l71 -1 7 -107 c3 -60
8 -130 10 -158 2 -27 7 -99 11 -158 5 -72 11 -106 18 -104 11 4 12 100 2 202
-2 28 -7 109 -10 180 -9 194 7 175 -149 177 -72 0 -139 0 -147 0 -8 -1 -109
-4 -225 -7 l-210 -4 1 -23 c1 -13 5 -54 8 -91 l7 -69 -33 8 c-18 4 -40 8 -48
9 -40 6 -48 16 -43 56 6 42 -11 55 -22 17 -22 -79 -15 -75 -133 -71 -59 1
-171 3 -249 4 l-142 2 14 34 c8 20 15 43 15 52 0 9 7 29 15 45 8 15 15 35 15
43 0 7 16 48 35 89 19 41 35 80 35 87 0 8 7 36 15 63 9 27 20 65 26 84 11 38
23 67 48 118 l16 32 125 1 c225 2 274 2 373 1 89 -2 97 -4 97 -22 0 -10 18
-38 40 -62 22 -24 40 -46 40 -50 0 -5 6 -8 14 -8 8 0 16 -7 20 -15 3 -8 12
-15 21 -15 8 0 15 -5 15 -10 0 -6 14 -24 30 -40 17 -16 30 -32 30 -36 0 -16
77 -103 93 -104 19 0 23 15 7 25 -19 12 -10 26 52 85 34 33 57 60 51 60 -6 0
-28 -17 -49 -38 -22 -21 -51 -46 -65 -56 -27 -17 -27 -17 -58 21 -17 21 -31
42 -31 48 0 5 -14 19 -30 30 -16 11 -30 26 -30 33 0 6 -6 12 -14 12 -8 0 -18
9 -21 20 -3 11 -13 20 -21 20 -8 0 -14 6 -14 13 0 7 -9 18 -21 25 -16 11 -18
16 -9 28 10 11 9 14 -3 14 -9 0 -19 5 -22 10 -7 11 321 6 452 -6 61 -5 62 -6
51 -27 -6 -12 -14 -24 -18 -27 -3 -3 -26 -26 -49 -53 -73 -80 -36 -66 44 17
l75 77 75 1 c76 2 76 2 111 -36 19 -20 34 -41 34 -46 0 -5 23 -33 51 -62 28
-29 58 -63 66 -75 9 -13 22 -23 29 -23 29 0 12 34 -49 93 -34 34 -72 81 -83
105 l-21 42 46 0 c25 0 70 -3 99 -7 l53 -6 -2 -91 c-1 -59 3 -110 14 -146 8
-30 18 -77 20 -105 3 -27 10 -78 17 -111 11 -55 10 -65 -5 -88 -16 -25 -17
-36 -5 -134 7 -59 19 -134 27 -167 8 -33 17 -75 20 -92 4 -24 11 -33 24 -33
21 0 36 55 25 93 -7 23 -36 230 -36 258 0 20 24 26 196 44 71 8 142 19 158 24
15 6 38 11 50 11 13 0 38 7 55 16 19 10 46 14 64 12 39 -6 57 -1 57 18 0 8 4
14 10 14 25 0 35 113 45 510 6 206 8 226 26 242 10 9 19 19 19 22 0 4 16 21
36 38 l36 32 -4 95 c-3 63 -11 106 -21 126 -9 17 -17 35 -17 41 0 6 -7 17 -15
24 -8 7 -15 19 -15 28 0 20 -43 59 -86 77 l-34 14 0 89 c0 105 -13 143 -68
200 -66 68 -144 75 -155 13 -4 -24 -17 -63 -38 -116 -4 -11 -13 -38 -19 -60
-22 -74 -45 -113 -77 -130 -18 -10 -35 -26 -38 -36 -4 -11 -11 -19 -16 -19 -5
0 -9 -6 -9 -14 0 -8 -7 -16 -15 -20 -11 -4 -15 -22 -15 -69 0 -71 23 -136 63
-179 23 -25 24 -27 20 -214 -2 -104 -3 -193 -3 -199 0 -18 -180 -6 -200 14
-31 29 -33 54 -45 606 -2 110 -11 263 -19 340 l-14 140 28 23 c18 15 31 37 35
62 7 39 -10 120 -24 120 -16 0 -30 83 -41 245 -6 88 -16 207 -22 265 -6 58
-14 197 -19 310 -10 255 -10 274 -4 330 3 25 1 72 -4 104 -7 52 -6 63 10 80
10 11 21 28 25 38 3 10 10 18 15 18 5 0 9 7 9 15 0 9 7 18 15 21 8 4 15 10 15
15 0 5 15 24 33 42 17 19 48 54 67 80 19 25 45 50 58 56 12 6 22 15 22 21 0
15 -16 12 -34 -5 -8 -8 -17 -15 -20 -15 -11 0 -6 28 5 32 17 6 0 33 -30 46
-30 13 -53 15 -156 13 -57 -1 -126 11 -170 29 -11 5 -45 13 -75 19 -72 13
-134 29 -195 51 -55 20 -229 45 -244 36 -5 -4 -13 -2 -16 4 -8 13 -358 13
-371 0z m164 -502 c12 0 22 -4 22 -10 0 -5 5 -6 11 -2 6 3 14 2 18 -4 4 -6 42
-12 89 -13 45 -1 79 -6 76 -10 -5 -9 32 -13 86 -11 14 0 40 -4 58 -10 19 -5
46 -12 60 -14 15 -2 47 -6 72 -10 25 -3 98 -7 163 -8 106 -1 120 1 133 18 7
11 17 17 20 13 3 -3 7 -61 9 -129 2 -68 8 -144 13 -168 5 -25 10 -115 11 -200
1 -85 6 -177 11 -205 13 -68 46 -515 38 -515 -1 0 -21 7 -43 15 -22 8 -70 14
-107 15 l-67 0 -48 -50 c-53 -55 -67 -60 -83 -30 -6 11 -17 20 -25 20 -8 0
-15 5 -15 11 0 5 -13 15 -30 20 -16 6 -30 15 -30 20 0 5 -8 9 -17 9 -10 0 -26
7 -37 15 -19 14 -72 11 -90 -6 -13 -12 -56 -11 -56 0 0 10 -56 -5 -75 -21 -35
-27 -62 -55 -68 -70 -5 -15 -20 -18 -91 -18 -47 0 -136 6 -198 14 -62 8 -176
17 -253 21 -221 9 -269 15 -285 31 -13 13 -15 82 -18 474 -3 453 -2 459 18
465 25 8 26 35 2 42 -10 2 -26 17 -35 33 -21 35 -21 40 -2 40 8 0 15 -4 15 -8
0 -4 14 -13 30 -19 22 -8 32 -20 37 -43 5 -30 8 -31 37 -26 17 4 47 9 67 12
36 6 36 6 37 58 1 90 2 96 16 96 8 0 24 -8 36 -18 l22 -17 -21 -19 c-24 -22
-29 -76 -7 -76 25 0 37 63 33 163 -3 52 -1 101 4 108 11 19 90 25 274 21 88
-3 170 -4 183 -4z m440 -1285 c87 -43 102 -63 102 -133 0 -51 -4 -62 -29 -88
-52 -52 -104 -72 -183 -72 -49 0 -76 5 -87 15 -9 8 -29 25 -45 38 -25 20 -28
30 -30 81 -1 44 3 60 17 70 9 7 17 20 17 29 0 25 59 61 120 73 30 6 56 12 58
13 2 0 29 -11 60 -26z m415 -5 c15 -7 27 -18 27 -25 0 -7 6 -16 13 -20 25 -15
49 -84 43 -121 -13 -82 -128 -140 -198 -99 -71 40 -98 75 -98 126 0 37 5 49
33 74 39 35 67 47 112 47 26 0 33 3 29 15 -7 18 3 19 39 3z m-1368 -85 c88 -2
174 -8 192 -14 17 -6 58 -7 90 -4 32 4 76 3 98 -2 22 -5 65 -6 95 -3 30 3 66
4 80 2 24 -3 25 -7 25 -67 0 -54 4 -66 25 -87 42 -42 64 -48 182 -50 94 -3
120 0 153 16 22 10 42 22 45 25 3 3 21 18 41 33 33 24 38 26 50 12 40 -48 237
-98 280 -71 30 18 37 0 43 -112 3 -56 8 -106 10 -110 8 -12 15 -159 21 -416 4
-132 10 -277 14 -323 4 -46 3 -86 -2 -89 -5 -3 -59 -2 -120 1 -62 4 -229 8
-372 11 -143 3 -280 7 -305 10 -50 5 -428 14 -672 14 -142 1 -157 3 -157 19 0
76 -12 467 -16 507 -3 28 -12 92 -20 143 -16 100 -17 183 -3 193 5 3 -39 9
-97 12 -58 4 -114 11 -124 17 -54 28 -77 137 -41 190 9 14 19 32 22 41 3 8 33
23 66 33 51 16 67 17 110 6 28 -6 53 -19 57 -27 10 -27 30 3 31 47 2 62 2 63
22 54 9 -4 89 -9 177 -11z m1962 -243 c6 0 25 -21 42 -47 30 -45 31 -50 31
-159 l0 -112 50 -36 c27 -19 57 -50 66 -68 9 -18 23 -40 30 -49 18 -21 44
-106 44 -147 0 -51 -25 -99 -68 -129 l-39 -28 0 -75 c0 -153 -16 -418 -30
-495 -8 -44 -16 -92 -17 -107 -2 -16 -4 -32 -5 -36 -1 -11 -56 -29 -116 -38
-27 -4 -54 -8 -60 -9 -5 -1 -35 -5 -66 -9 -49 -6 -57 -5 -64 11 -15 38 22 857
41 907 4 12 0 16 -16 16 -38 0 -57 18 -81 77 -31 76 -29 133 6 179 32 42 51
51 76 36 25 -16 29 -15 29 4 0 22 59 9 83 -18 20 -24 21 -45 2 -78 -19 -33
-18 -39 4 -33 21 5 31 31 31 83 0 44 -6 51 -57 74 -24 11 -43 23 -43 28 0 17
22 103 47 186 23 75 28 83 47 78 12 -3 26 -6 33 -6z m-245 -1096 c14 -4 16
-24 12 -192 -3 -103 -7 -206 -10 -229 -5 -41 -7 -43 -39 -43 -18 0 -61 -7 -96
-16 -44 -11 -64 -13 -68 -5 -4 6 -16 74 -26 151 -10 78 -22 143 -27 146 -12 7
-10 142 2 149 6 3 10 15 10 25 0 10 6 21 13 23 14 6 204 -2 229 -9z"/>
<path d="M1847 2144 c-7 -7 17 -48 46 -81 22 -25 30 -20 -77 -43 -27 -6 -61
-20 -77 -30 -15 -11 -31 -20 -36 -20 -30 0 -48 -136 -23 -176 7 -11 31 -28 54
-38 61 -27 176 -10 176 25 0 12 -37 11 -45 -1 -9 -15 -92 -12 -124 5 -36 18
-55 64 -47 110 7 37 33 75 51 75 5 0 22 6 36 14 15 7 60 17 102 20 53 5 77 12
81 23 7 18 -1 33 -18 33 -15 0 -56 42 -56 58 0 13 -35 34 -43 26z"/>
<path d="M13810 4584 c-115 -18 -196 -42 -182 -56 5 -5 47 -1 108 11 113 23
218 29 284 17 73 -13 212 -52 260 -73 25 -11 59 -23 75 -27 17 -4 53 -22 80
-40 95 -63 165 -106 175 -106 6 0 10 -4 10 -8 0 -14 241 -252 255 -252 38 0 5
45 -119 165 -73 72 -147 137 -162 145 -16 8 -56 33 -89 55 -63 43 -124 74
-190 96 -22 7 -44 16 -50 20 -5 3 -35 12 -65 19 -30 7 -75 19 -99 27 -67 21
-185 24 -291 7z"/>
<path d="M13441 4422 c-67 -56 -143 -133 -138 -138 6 -6 -63 -74 -75 -74 -14
0 -118 -82 -160 -127 -40 -42 -128 -175 -128 -193 0 -7 -8 -24 -18 -38 -18
-27 -60 -159 -69 -217 -2 -16 -11 -52 -18 -80 -22 -81 -28 -133 -28 -250 1
-99 4 -120 36 -215 40 -118 83 -202 143 -281 50 -65 205 -216 237 -229 12 -6
49 -28 82 -50 88 -58 245 -133 369 -174 59 -21 149 -59 200 -87 50 -27 100
-53 111 -58 11 -5 55 -30 98 -55 43 -25 80 -46 82 -46 3 0 59 -37 126 -82 129
-87 200 -161 242 -250 13 -29 29 -48 41 -50 31 -5 29 -21 -11 -64 -46 -48 -78
-64 -163 -80 -140 -27 -131 -27 -215 0 -44 14 -87 26 -95 26 -7 0 -68 27 -135
61 -100 50 -130 71 -182 125 -35 36 -81 93 -102 127 -67 103 -68 104 -82 90
-7 -7 -28 -13 -45 -13 -26 0 -33 -4 -36 -22 -2 -13 -17 -32 -35 -43 -18 -11
-32 -23 -33 -27 0 -14 27 -9 40 7 7 8 20 15 30 15 10 0 21 7 24 16 10 27 58
13 84 -26 30 -45 95 -122 150 -177 82 -83 398 -215 510 -213 26 0 57 1 70 0
13 0 30 7 38 15 9 8 33 15 53 15 22 0 44 6 51 15 7 8 17 15 22 15 5 0 29 16
53 35 44 36 95 124 95 163 0 27 17 72 28 72 11 0 44 -68 74 -150 28 -77 142
-239 228 -325 54 -54 60 -63 54 -90 -3 -16 -23 -50 -44 -75 -31 -38 -42 -45
-68 -42 -28 3 -31 1 -30 -26 1 -24 -12 -42 -68 -95 -64 -61 -136 -117 -151
-117 -4 0 -14 -7 -23 -15 -10 -9 -27 -18 -40 -20 -12 -2 -27 -11 -34 -19 -6
-8 -31 -19 -56 -24 -25 -6 -64 -16 -87 -21 -65 -17 -153 -18 -208 -4 -27 7
-65 13 -84 13 -19 0 -48 5 -65 10 -17 6 -71 22 -119 35 -49 14 -101 31 -115
39 -15 7 -61 29 -102 47 -41 19 -102 53 -135 76 -33 23 -88 61 -122 85 -64 44
-234 186 -267 222 -60 67 -128 158 -146 197 l-20 44 23 18 c12 10 31 26 42 35
32 27 85 62 94 62 5 0 14 6 20 14 9 11 9 15 -1 19 -23 8 -74 -24 -205 -130
l-22 -18 24 -50 c25 -53 32 -105 14 -105 -7 0 -22 -11 -35 -25 -13 -14 -34
-25 -48 -25 -34 0 -41 -16 -19 -48 10 -15 22 -34 28 -44 10 -17 30 -44 129
-181 78 -108 188 -213 252 -242 28 -13 85 -39 125 -58 150 -71 235 -107 256
-107 12 0 37 -9 55 -19 41 -23 111 -39 203 -45 39 -3 95 -8 125 -11 32 -4 74
-2 100 5 25 6 76 16 115 22 38 6 79 17 90 24 11 8 27 14 36 14 9 0 22 6 28 14
7 8 24 17 39 21 52 13 178 124 342 302 25 27 50 52 57 56 13 8 86 -26 118 -54
28 -24 238 -122 305 -142 130 -39 267 -58 401 -58 138 0 149 1 234 21 28 6 73
15 100 20 28 4 71 17 97 29 55 23 72 15 83 -41 4 -18 8 -40 11 -49 4 -14 43
-15 342 -15 185 1 358 -3 383 -7 41 -8 49 -6 75 16 28 24 29 29 29 109 l0 83
60 6 c33 3 70 9 82 13 15 5 35 -1 65 -20 70 -45 209 -105 288 -124 125 -32
165 -41 250 -59 151 -32 170 -33 239 -21 61 10 91 17 241 54 71 18 128 40 142
54 7 7 16 12 21 12 5 0 36 18 68 40 62 42 89 44 89 5 0 -13 4 -35 9 -48 l9
-24 199 3 c109 2 245 9 303 15 58 6 130 12 160 13 l55 1 0 75 0 75 83 -3 c62
-3 82 0 83 10 3 30 1 66 -4 116 -4 32 -2 52 4 52 6 0 7 5 3 12 -4 7 -7 27 -6
45 2 18 -2 33 -8 33 -5 0 -10 -3 -10 -7 -1 -5 -3 -55 -5 -112 -3 -57 -7 -107
-10 -109 -7 -7 -572 -3 -612 4 -18 4 -34 11 -35 18 0 6 -2 16 -2 21 -1 6 -5
15 -9 22 -13 21 -12 156 2 181 19 35 8 36 -29 2 -18 -16 -34 -30 -37 -30 -3 0
-29 -23 -58 -51 -60 -57 -139 -112 -202 -140 -24 -10 -64 -29 -90 -41 -27 -12
-50 -22 -53 -23 -3 0 -11 -4 -17 -8 -56 -35 -315 -40 -443 -9 -47 12 -114 26
-150 32 -59 11 -167 46 -214 72 -70 38 -99 57 -166 113 -76 64 -144 150 -154
195 -3 14 -8 179 -10 367 -3 189 -8 347 -11 353 -3 5 -8 83 -11 172 -3 100
-11 183 -20 214 -8 29 -14 56 -12 60 1 5 -1 18 -5 29 -5 15 -17 21 -49 22 -23
2 -45 6 -50 11 -4 4 4 42 17 85 14 43 25 83 25 88 0 6 9 23 19 37 10 15 20 30
21 34 1 4 4 17 7 28 3 11 11 20 18 20 23 0 27 32 5 47 -13 10 -20 25 -20 49 0
19 -4 43 -10 54 -5 11 -15 29 -20 40 -6 12 -8 26 -4 33 5 9 4 9 -5 1 -9 -8 -9
-17 0 -40 15 -36 27 -154 16 -154 -4 0 -7 -6 -5 -12 2 -14 -25 -72 -67 -147
-18 -32 -22 -48 -14 -57 13 -16 4 -94 -14 -112 -9 -8 -44 -16 -93 -18 -89 -6
-127 7 -132 45 -2 14 0 21 7 17 13 -8 125 19 169 41 33 17 46 41 15 28 -10 -4
-54 -15 -98 -24 -68 -15 -90 -16 -150 -5 -92 16 -121 28 -167 69 -21 19 -44
35 -51 35 -7 0 -31 19 -54 43 -35 36 -44 56 -66 138 -21 81 -23 105 -16 155
11 68 37 134 54 134 6 0 30 16 52 35 23 19 46 35 51 35 5 0 12 7 16 15 3 8 12
15 21 15 8 0 15 7 15 15 0 18 -12 19 -27 4 -12 -12 -53 4 -53 21 0 17 -96 12
-110 -5 -9 -11 -22 -14 -47 -9 -27 5 -37 2 -52 -15 -10 -11 -23 -21 -28 -21
-11 0 -61 -61 -79 -95 -15 -30 -38 -228 -30 -260 8 -31 -7 -32 -41 -5 -14 11
-34 20 -43 20 -10 0 -22 6 -29 13 -15 19 -105 62 -177 86 -48 16 -77 19 -130
15 -38 -3 -70 -7 -72 -9 -2 -2 -17 1 -33 5 -18 6 -41 5 -56 -1 -15 -5 -46 -12
-70 -15 -24 -3 -67 -16 -96 -30 -76 -38 -139 -66 -162 -75 -62 -23 -153 -69
-165 -84 -7 -9 -30 -25 -51 -35 -37 -19 -55 -45 -39 -55 4 -3 14 1 22 8 44 42
196 137 219 137 13 0 79 28 141 61 95 50 155 62 308 60 119 -1 155 -5 205 -23
33 -12 67 -27 75 -34 22 -18 129 -74 141 -74 6 0 29 -15 51 -34 22 -19 57 -42
77 -52 20 -9 48 -32 64 -50 15 -18 44 -43 65 -55 39 -24 122 -98 122 -108 0
-17 -121 -131 -139 -131 -13 0 -21 -7 -21 -17 -1 -20 -23 -53 -36 -53 -5 0
-33 -27 -63 -60 -29 -33 -60 -60 -68 -60 -7 0 -42 24 -78 54 -35 30 -81 59
-102 65 -39 11 -207 27 -233 23 -8 -1 -46 -7 -85 -13 -63 -10 -102 -22 -115
-38 -7 -8 -40 -28 -70 -43 -14 -7 -31 -21 -39 -32 -8 -10 -25 -28 -38 -39 -13
-12 -22 -26 -19 -33 2 -6 -1 -20 -8 -30 -47 -69 -69 -231 -46 -339 6 -27 11
-55 12 -62 1 -7 18 -33 38 -57 87 -106 149 -136 278 -137 50 0 99 4 110 10 12
6 31 11 43 11 34 0 90 23 85 35 -2 5 -10 8 -17 6 -89 -22 -113 -31 -119 -41
-5 -9 -9 -9 -14 -1 -4 6 -32 11 -62 11 -117 0 -204 43 -272 136 -40 55 -52 84
-58 149 -3 27 -7 56 -9 63 -4 11 12 85 31 144 2 9 15 18 27 20 12 2 26 12 32
24 5 11 27 35 48 53 31 28 50 35 110 44 151 21 208 9 290 -59 47 -39 104 -43
117 -8 5 12 29 32 55 44 l46 22 24 -22 c17 -16 31 -21 49 -16 14 3 27 2 30 -2
13 -22 28 -722 15 -722 -13 0 -39 38 -60 85 -33 76 -87 155 -105 155 -8 0 -30
-11 -48 -25 -18 -14 -40 -25 -49 -25 -27 0 -47 -12 -47 -27 0 -18 47 -10 64
11 6 8 22 16 36 19 21 5 31 0 52 -27 15 -19 37 -54 49 -78 44 -86 94 -153 185
-247 52 -53 94 -100 94 -105 0 -5 7 -14 16 -21 9 -6 17 -24 17 -38 0 -34 20
-35 41 -1 17 25 16 26 -19 65 -32 35 -35 45 -29 72 8 35 7 574 -1 587 -3 5
-10 78 -16 162 -27 384 -26 371 -10 400 9 15 22 28 29 28 6 0 12 5 12 11 0 8
14 10 43 6 25 -3 51 -1 64 6 18 10 49 10 145 0 138 -14 230 -17 333 -11 77 5
105 -3 105 -31 0 -10 7 -35 15 -55 9 -20 18 -71 20 -114 3 -42 7 -106 10 -142
8 -108 18 -514 17 -702 0 -98 5 -222 11 -276 8 -77 8 -108 -2 -145 -12 -40
-16 -45 -32 -37 -27 15 -59 12 -59 -5 0 -8 18 -26 39 -41 42 -27 58 -53 41
-64 -13 -8 -87 -3 -154 10 -26 6 -98 10 -160 10 -159 -1 -415 19 -459 36 -8 3
-11 32 -10 89 0 47 -3 87 -8 91 -5 3 -9 0 -9 -5 0 -6 -6 -11 -14 -11 -7 0 -20
-7 -27 -16 -16 -20 -108 -79 -136 -88 -12 -4 -27 -13 -33 -21 -7 -8 -21 -15
-31 -15 -11 0 -19 -3 -19 -7 0 -5 -11 -9 -24 -9 -14 -1 -64 -14 -113 -30 -73
-23 -106 -28 -193 -28 -75 1 -114 5 -135 16 -16 9 -50 19 -75 23 -78 13 -365
136 -418 179 -15 12 -51 37 -79 55 -29 18 -53 37 -53 41 0 4 -28 36 -63 71
-84 85 -171 212 -193 279 -9 30 -30 78 -45 105 -44 81 -64 189 -63 356 0 136
7 187 35 254 26 63 57 177 53 190 -4 10 0 15 10 15 10 0 23 14 31 33 7 17 25
47 39 65 13 19 22 40 19 48 -8 22 -19 9 -53 -61 -17 -36 -35 -65 -40 -65 -5 0
-12 -10 -15 -22 -4 -13 -16 -43 -27 -68 -75 -164 -83 -201 -84 -393 -1 -92 -4
-168 -7 -170 -3 -1 -18 16 -34 39 -43 62 -63 84 -133 145 -69 60 -127 99 -147
99 -7 0 -43 20 -80 43 -37 24 -117 67 -178 96 -60 28 -118 56 -127 61 -10 6
-23 10 -29 10 -6 0 -58 23 -116 50 -58 28 -107 50 -110 50 -2 0 -19 11 -36 24
-18 14 -43 29 -57 35 -14 6 -47 24 -75 41 -60 36 -91 50 -111 50 -20 0 -64 30
-64 44 0 6 -28 36 -61 66 -80 72 -169 181 -204 250 -15 30 -33 62 -41 70 -22
26 -63 220 -64 301 0 75 30 229 61 309 16 41 29 81 29 88 0 6 5 12 10 12 6 0
10 5 10 10 0 12 52 124 72 155 7 11 30 46 50 77 21 32 38 61 38 65 0 5 18 26
41 48 22 22 52 59 67 82 15 24 32 43 37 43 11 0 95 74 95 83 0 14 -16 5 -59
-31z"/>
<path d="M5573 4264 c-3 -9 -1 -25 5 -35 20 -32 14 -36 -63 -41 -42 -3 -78 -8
-82 -11 -3 -4 -1 -31 5 -59 7 -29 13 -82 14 -117 1 -35 7 -65 13 -67 5 -2 82
-5 170 -7 88 -2 168 -7 178 -11 9 -5 20 -20 23 -35 4 -14 10 -30 14 -36 9 -12
18 -87 25 -210 3 -49 12 -122 20 -162 8 -40 15 -94 16 -120 0 -26 3 -66 7 -88
l7 -40 100 4 c94 3 101 5 122 30 24 28 30 71 11 71 -9 0 -9 3 1 9 9 6 21 5 32
-2 33 -21 44 12 40 121 -1 30 -5 42 -16 42 -11 0 -15 -12 -15 -50 0 -58 -8
-64 -96 -74 -44 -5 -64 -3 -71 6 -16 20 -22 90 -20 243 4 309 2 394 -10 406
-7 7 -57 13 -125 15 -154 4 -235 13 -247 27 -5 7 -9 43 -8 80 l2 69 55 3 c175
8 784 1 818 -10 10 -4 11 -23 6 -82 -4 -43 -8 -80 -10 -82 -1 -2 -33 -5 -69
-6 -37 -2 -72 -9 -80 -15 -9 -8 -15 -8 -20 0 -9 15 -116 1 -138 -18 -16 -15
-16 -16 3 -37 11 -12 20 -33 20 -48 0 -26 15 -46 22 -27 4 13 26 14 93 5 28
-4 66 -3 85 2 29 8 36 15 45 51 14 56 25 65 54 41 23 -19 24 -21 16 -147 -14
-258 -7 -614 13 -634 10 -10 191 -13 220 -4 21 7 27 25 24 69 -2 20 29 23 58
5 16 -10 23 -10 36 4 16 15 16 18 0 33 -15 16 -22 59 -17 119 2 16 -3 33 -11
37 -11 8 -11 11 1 18 10 6 12 19 7 44 -6 31 -4 36 16 42 32 11 128 9 139 -2
13 -13 16 -167 5 -280 l-8 -93 28 0 c15 0 43 -6 62 -12 29 -11 36 -10 46 4 7
9 32 18 63 22 94 10 103 14 103 51 0 38 11 49 58 52 27 2 32 -2 32 -20 1 -23
29 -112 44 -135 4 -7 16 -10 27 -7 10 4 25 2 34 -2 9 -5 64 -4 128 2 136 13
306 9 333 -7 5 -4 28 -3 50 2 21 5 58 10 80 10 50 0 62 12 66 70 3 45 3 45 42
47 39 1 61 19 47 38 -5 5 -12 36 -16 68 -9 80 -27 97 -91 86 -27 -4 -69 -8
-93 -8 l-44 -1 7 38 c3 20 6 45 6 55 0 14 5 17 20 12 11 -3 29 -3 41 0 17 6
19 12 13 38 -3 18 -9 36 -12 41 -2 5 -4 49 -3 98 l2 89 -128 -4 c-147 -5 -173
1 -173 39 0 23 3 25 25 20 13 -3 94 -9 179 -12 l155 -5 6 38 c10 60 17 68 73
71 l51 3 -4 92 c-5 98 -16 152 -31 152 -5 0 -65 -6 -134 -13 -174 -17 -305
-24 -443 -22 -118 1 -119 0 -117 -22 1 -13 2 -39 1 -59 l-1 -37 -62 -4 c-83
-6 -88 -4 -82 41 8 66 -6 73 -142 75 l-119 1 0 -35 c0 -33 -4 -36 -34 -31 -5
0 -13 10 -16 22 -5 15 -14 19 -33 17 l-27 -3 3 -153 3 -153 -68 3 -68 3 3 66
c2 38 0 69 -6 73 -6 3 -8 16 -4 28 3 14 2 19 -6 14 -7 -4 -12 -3 -12 3 0 5 5
13 10 16 9 6 8 96 -1 151 -2 8 -38 14 -98 17 -53 3 -109 9 -125 13 -29 7 -29
7 -22 -30 4 -21 10 -44 13 -53 5 -13 -1 -14 -45 -8 -40 5 -52 4 -52 -7 0 -10
-3 -9 -10 2 -5 8 -10 34 -10 58 l0 42 -157 1 c-87 0 -170 2 -185 4 -16 2 -28
-1 -28 -6 0 -5 -7 -9 -16 -9 -8 0 -12 5 -9 10 4 7 -70 10 -227 10 -128 0 -251
4 -273 9 -53 14 -55 14 -62 -5z m1276 -88 c5 -12 11 -79 13 -148 3 -108 1
-127 -14 -142 -10 -10 -18 -19 -18 -22 0 -14 83 -34 139 -34 37 0 72 -5 78
-11 8 -8 20 -8 45 0 18 5 42 9 53 8 19 -2 20 4 21 108 1 61 -2 115 -7 121 -6
7 -6 21 0 36 5 14 9 33 8 44 -2 24 30 28 129 19 l72 -6 7 -42 c5 -23 10 -177
12 -342 2 -165 5 -322 6 -350 l2 -50 -35 0 c-33 0 -35 2 -38 38 -4 46 -22 49
-22 3 l0 -34 -57 -4 c-32 -2 -62 -1 -68 4 -5 5 -12 73 -16 152 -4 79 -12 154
-19 165 -12 23 -11 23 -155 26 -55 1 -108 4 -119 6 -25 5 -44 -25 -30 -49 8
-11 9 -46 3 -107 -4 -50 -5 -122 -2 -162 l6 -72 -71 1 c-82 2 -83 3 -89 98 -5
87 -11 754 -6 763 2 4 40 7 84 7 74 0 80 -2 88 -24z m1381 -13 c6 -21 10 -60
8 -88 -3 -44 -6 -50 -27 -53 -13 -2 -28 1 -33 6 -6 6 -24 6 -46 1 -20 -4 -39
-6 -44 -3 -4 3 -90 5 -190 6 -186 1 -206 -3 -178 -37 6 -8 11 -27 9 -42 -1
-15 3 -41 10 -56 6 -16 11 -47 11 -69 l0 -41 63 8 c81 11 226 15 231 6 7 -11
15 -161 10 -176 -8 -20 -34 -19 -34 0 0 20 -16 19 -24 -1 -5 -13 -21 -15 -98
-11 -51 2 -100 6 -108 8 -12 3 -15 -6 -15 -45 0 -47 -1 -49 -35 -61 l-35 -13
28 -11 c16 -6 33 -11 38 -11 5 0 9 -15 9 -32 0 -18 4 -40 10 -48 8 -12 11 -12
27 3 19 17 136 34 296 44 87 5 85 6 89 -72 l3 -50 -32 3 c-18 1 -33 -2 -33 -7
0 -15 -111 -24 -297 -24 -126 0 -187 4 -197 12 -19 16 -25 81 -51 531 -8 140
-15 239 -20 278 -7 49 -17 45 120 47 141 3 471 24 517 34 4 0 12 -16 18 -36z"/>
<path d="M4530 4096 c-3 -2 -37 -6 -75 -7 -39 -1 -82 -6 -97 -10 -16 -4 -146
-10 -290 -14 -144 -3 -267 -10 -273 -15 -5 -4 -30 -10 -55 -13 -72 -7 -174
-29 -185 -38 -5 -5 -26 -9 -46 -9 -21 0 -40 -4 -43 -9 -3 -5 -23 -11 -43 -14
-21 -2 -64 -12 -96 -21 -32 -9 -60 -16 -62 -16 -2 0 -6 14 -10 30 -4 17 -13
30 -21 30 -12 0 -17 -13 -28 -70 -2 -9 3 -21 9 -27 16 -15 29 -103 17 -115
-13 -13 -139 -31 -167 -24 -13 3 -27 15 -30 27 -9 27 -39 20 -43 -10 -2 -13
10 -53 27 -90 18 -40 32 -92 36 -131 4 -36 11 -79 16 -95 5 -17 12 -59 15 -93
3 -34 12 -85 20 -114 18 -67 54 -290 48 -300 -2 -4 0 -35 5 -70 6 -35 13 -81
17 -103 5 -36 12 -111 28 -305 3 -36 6 -164 6 -285 1 -121 5 -265 10 -320 8
-91 17 -298 24 -545 2 -52 6 -188 10 -303 l8 -207 -25 0 c-14 0 -28 -4 -31 -8
-23 -38 94 -43 219 -8 58 16 117 25 166 25 42 1 78 3 81 6 3 3 74 8 159 11
259 9 297 12 307 18 6 4 7 20 1 43 -5 21 -9 58 -9 82 l0 44 49 -7 c27 -3 56
-4 65 0 17 6 22 35 9 48 -14 14 -44 240 -50 373 -4 102 -8 131 -18 127 -18 -7
-19 -219 -1 -293 8 -31 17 -88 21 -128 5 -63 4 -73 -12 -81 -10 -5 -108 -12
-218 -16 -110 -4 -216 -8 -235 -10 -30 -3 -237 -19 -264 -21 -17 0 -26 57 -32
205 -3 80 -8 159 -10 175 -3 17 -9 237 -13 490 -5 253 -12 476 -15 495 -3 19
-8 90 -11 158 -3 68 -8 128 -10 135 -2 7 -6 62 -10 122 -3 61 -10 148 -15 195
-6 47 -14 139 -19 205 -6 66 -17 167 -25 225 -8 58 -18 141 -21 185 -3 44 -8
90 -11 102 -2 12 3 28 11 37 21 20 19 39 -5 54 -23 14 -27 59 -7 85 13 19 90
44 174 57 28 4 92 20 141 34 50 14 100 26 112 26 12 0 29 4 39 10 10 5 92 11
182 14 90 3 236 11 324 17 88 7 234 12 325 12 212 1 287 -13 545 -100 55 -19
122 -41 149 -50 45 -14 116 -57 124 -75 2 -5 9 -8 16 -8 7 0 23 -9 36 -20 18
-16 26 -18 32 -8 6 9 7 6 4 -8 -5 -15 3 -28 31 -50 67 -52 103 -86 103 -95 0
-5 12 -28 27 -52 32 -50 83 -170 83 -197 0 -10 8 -38 18 -62 11 -24 25 -67 32
-97 16 -67 16 -207 0 -225 -6 -8 -34 -20 -63 -27 -49 -11 -135 -52 -219 -102
-55 -33 -190 -165 -182 -178 4 -7 29 12 65 50 33 33 59 58 59 56 0 -3 22 11
50 30 27 19 53 35 56 35 4 0 21 11 38 24 26 19 57 34 86 41 3 1 30 8 60 17 76
21 183 39 260 44 36 2 98 9 139 15 43 6 107 8 152 4 51 -5 79 -3 79 3 0 14
-19 20 -88 28 -37 4 -73 2 -94 -5 -19 -6 -92 -12 -162 -13 -70 -2 -130 -6
-132 -10 -3 -4 -18 -8 -35 -8 -25 0 -29 4 -29 28 0 21 -2 24 -10 12 -5 -8 -10
-10 -10 -5 0 6 4 15 9 20 13 13 17 109 7 165 -5 25 -17 57 -27 71 -10 14 -16
29 -13 32 9 8 -16 87 -27 87 -6 0 -8 4 -5 8 9 15 -13 78 -33 96 -11 10 -17 25
-14 36 6 24 -75 140 -93 133 -8 -3 -14 1 -14 9 0 17 -45 59 -54 51 -3 -3 -9 3
-13 13 -20 55 -205 184 -263 184 -17 0 -126 35 -178 58 -56 23 -166 51 -264
66 -107 17 -281 30 -288 22z"/>
<path d="M8485 4031 c-3 -6 -1 -28 4 -48 14 -49 14 -100 1 -108 -6 -4 -46 -6
-90 -6 -65 0 -80 -2 -80 -15 0 -8 11 -19 24 -24 21 -8 25 -17 31 -77 4 -37 11
-85 16 -105 5 -20 9 -61 8 -90 -1 -29 2 -134 6 -233 4 -99 4 -229 0 -288 l-7
-109 -37 7 c-20 4 -37 11 -39 16 -2 5 -10 9 -18 9 -9 0 -13 4 -10 9 3 5 -9 14
-27 21 -17 7 -45 18 -62 25 -16 8 -52 23 -79 35 -26 12 -98 30 -160 42 -90 16
-133 19 -226 14 -291 -16 -361 -35 -536 -142 -32 -20 -145 -115 -173 -146 -23
-26 -31 -23 -87 30 -63 60 -118 89 -209 113 -80 21 -99 23 -90 9 3 -5 1 -10
-4 -10 -6 0 -11 7 -11 15 0 8 -10 17 -22 19 -154 32 -208 39 -208 27 0 -5 -6
-11 -12 -14 -7 -2 -5 -3 4 -2 10 2 20 0 23 -5 2 -4 28 -10 57 -13 30 -4 89
-16 133 -28 44 -11 106 -27 137 -35 33 -8 80 -30 110 -51 59 -43 138 -122 138
-139 0 -6 7 -17 15 -24 8 -7 24 -33 36 -59 37 -79 51 -106 64 -116 6 -5 23
-37 36 -70 14 -33 30 -61 37 -63 15 -3 15 0 -2 40 -16 38 -40 115 -55 173 -8
30 -18 43 -41 53 -21 10 -30 21 -30 37 0 13 -4 27 -10 30 -18 11 -11 31 23 66
46 48 141 129 150 129 5 0 23 11 40 23 18 13 48 30 67 37 19 8 37 17 40 20 11
13 140 41 235 50 55 5 123 13 150 16 32 4 98 -2 183 -15 124 -20 158 -28 207
-50 11 -5 39 -16 62 -25 23 -8 75 -36 115 -61 40 -25 76 -45 81 -45 12 0 64
-41 120 -94 42 -41 46 -48 35 -66 -7 -11 -18 -20 -25 -20 -7 0 -20 -12 -30
-26 -9 -15 -29 -34 -43 -43 -15 -9 -61 -58 -104 -108 -42 -51 -80 -93 -85 -93
-5 0 -28 -18 -50 -40 -22 -22 -45 -40 -51 -40 -7 0 -35 20 -63 45 -29 25 -57
45 -63 45 -6 0 -33 10 -60 22 -67 30 -133 41 -232 40 -108 -1 -149 -18 -231
-95 -97 -90 -132 -172 -146 -343 -7 -82 -3 -99 48 -203 21 -42 86 -104 103
-97 8 3 13 2 10 -3 -15 -24 155 -40 235 -22 175 40 263 79 325 146 47 50 85
24 167 -113 51 -86 56 -93 180 -208 48 -45 87 -86 87 -92 0 -6 12 -19 27 -30
17 -12 24 -24 19 -33 -18 -35 -33 -54 -46 -57 -7 -2 -26 -12 -41 -23 -15 -10
-34 -19 -43 -19 -9 0 -16 -6 -16 -14 0 -8 -14 -26 -31 -40 -35 -29 -149 -86
-174 -86 -8 0 -15 -4 -15 -10 0 -5 -7 -10 -16 -10 -9 0 -30 -6 -47 -14 -44
-19 -119 -36 -161 -36 -19 0 -47 -5 -61 -10 -15 -6 -111 -11 -213 -11 -184 -1
-207 2 -329 39 -17 6 -34 8 -36 5 -5 -4 -119 50 -173 83 -73 45 -130 90 -163
130 -13 16 -30 36 -38 46 -13 14 -12 20 1 45 8 16 21 35 30 42 24 20 79 138
73 155 -4 9 -2 16 3 16 13 0 39 88 44 150 4 45 3 50 -6 30 -5 -14 -11 -32 -12
-40 -1 -8 -5 -22 -8 -30 -4 -8 -18 -49 -33 -90 -34 -97 -58 -150 -67 -150 -5
0 -8 -6 -8 -13 0 -8 -9 -22 -20 -32 -11 -10 -20 -24 -20 -32 0 -7 -4 -13 -8
-13 -5 0 -35 -25 -68 -55 -32 -30 -67 -55 -76 -55 -10 0 -32 -13 -50 -29 -18
-15 -55 -40 -83 -56 -27 -15 -57 -33 -65 -41 -9 -7 -36 -20 -60 -29 -25 -9
-63 -24 -85 -34 -50 -24 -216 -51 -275 -46 -25 2 -81 7 -125 10 -179 14 -206
21 -252 71 -24 24 -43 49 -43 55 0 18 -43 68 -53 62 -6 -3 -7 -1 -4 4 9 14
-32 105 -78 173 -20 30 -43 67 -51 82 -7 14 -20 32 -27 40 -8 7 -26 36 -42 63
-15 28 -30 52 -34 55 -19 15 -178 238 -242 341 -21 32 -46 68 -58 80 -11 12
-32 39 -47 60 -25 36 -25 40 -14 96 11 51 23 83 69 183 6 14 20 39 30 55 11
17 20 38 20 48 1 11 6 15 12 11 7 -4 10 -2 8 5 -3 7 16 33 40 59 28 29 40 47
32 50 -16 5 -84 -70 -107 -118 -9 -19 -27 -49 -40 -66 -26 -35 -94 -198 -94
-226 0 -19 -25 -25 -35 -8 -9 15 -35 12 -35 -3 0 -19 35 -49 45 -40 4 5 5 2 1
-5 -4 -7 3 -26 19 -45 49 -60 90 -110 100 -121 6 -6 19 -29 30 -51 11 -22 40
-67 65 -100 25 -33 66 -89 91 -125 26 -36 55 -75 65 -87 32 -37 48 -59 64 -85
8 -14 33 -52 54 -84 22 -33 57 -93 78 -134 22 -41 61 -109 88 -150 53 -81 59
-100 33 -100 -14 0 -14 -2 2 -20 10 -11 26 -18 35 -15 17 5 49 -39 37 -51 -15
-15 -185 -36 -317 -38 -80 -2 -208 -7 -285 -11 -77 -4 -166 -5 -198 -1 -53 7
-60 11 -73 39 -8 18 -20 41 -27 51 -6 11 -28 44 -47 74 -19 30 -41 66 -49 81
-8 14 -18 28 -23 29 -4 2 -8 12 -8 22 0 10 -5 22 -10 25 -6 4 -17 21 -25 38
-8 18 -19 39 -25 47 -5 8 -29 49 -51 90 -23 41 -48 80 -55 88 -8 7 -14 21 -14
31 0 10 -22 52 -50 94 -27 42 -50 83 -50 91 0 8 -10 27 -23 43 -13 15 -38 53
-57 83 -44 71 -71 100 -93 100 -14 0 -16 -4 -7 -19 15 -28 13 -31 -19 -31 -17
0 -46 -10 -67 -22 -34 -20 -38 -20 -49 -5 -7 9 -20 17 -29 17 -14 0 -16 -6
-12 -27 8 -39 26 -195 24 -213 -1 -8 0 -46 0 -84 2 -61 4 -67 18 -55 12 9 14
24 10 56 -4 36 -2 45 12 49 9 3 32 13 51 22 l34 17 28 -34 c15 -19 38 -53 51
-76 13 -24 44 -75 71 -114 102 -153 137 -209 137 -220 0 -6 8 -25 18 -43 10
-18 24 -49 32 -68 7 -19 21 -46 31 -60 9 -14 36 -63 59 -110 24 -47 56 -104
72 -127 15 -23 28 -50 28 -61 0 -28 37 -59 52 -44 7 7 23 12 36 12 13 0 32 5
44 11 11 6 43 12 71 14 29 1 81 8 117 15 53 10 345 15 500 9 14 0 46 3 73 7
48 7 59 21 32 44 -8 7 -15 19 -15 26 0 26 52 15 153 -32 l99 -47 103 6 c77 4
118 12 165 31 35 14 68 26 74 26 6 0 33 11 60 25 27 14 53 25 58 25 14 0 142
62 168 82 43 33 100 81 142 121 62 57 79 58 135 0 49 -48 143 -120 172 -131 9
-3 25 -13 36 -23 29 -25 148 -86 181 -93 16 -3 61 -8 99 -11 39 -3 116 -10
173 -15 56 -6 106 -8 111 -6 5 3 51 10 102 16 88 10 245 50 279 71 40 25 63
33 119 43 32 6 46 5 51 -5 5 -7 11 -79 15 -161 4 -82 11 -151 15 -153 18 -11
694 -14 707 -3 7 6 24 8 38 6 39 -8 47 11 35 83 -16 100 -17 96 43 92 43 -4
56 0 79 19 l27 23 -10 105 c-7 72 -7 106 0 108 6 2 26 14 46 28 20 13 42 24
49 24 22 0 110 -103 125 -146 7 -21 19 -46 26 -54 6 -8 28 -45 49 -82 20 -37
41 -70 46 -73 11 -7 40 -64 40 -81 0 -7 -6 -14 -12 -17 -7 -2 -10 -8 -6 -12
15 -16 83 -20 212 -13 192 11 482 4 500 -11 16 -14 36 -7 36 12 -1 7 -18 48
-40 91 -21 44 -37 83 -35 86 3 4 26 10 52 13 66 7 78 27 47 80 -37 65 -33 79
19 71 23 -4 47 -10 52 -14 66 -46 315 -86 435 -70 170 24 218 32 255 42 22 7
47 13 55 13 9 1 31 9 50 17 19 8 54 23 78 33 23 10 47 24 53 32 6 7 22 13 35
13 12 0 26 4 29 10 3 5 15 10 26 10 10 0 19 5 19 10 0 6 11 10 25 10 14 0 37
11 51 25 14 14 31 25 38 25 7 0 25 13 40 29 18 19 34 27 47 24 34 -9 36 27 3
56 -16 14 -37 36 -47 48 -18 21 -18 23 -1 52 10 17 23 31 29 31 6 0 23 12 39
27 l29 27 -24 15 c-13 9 -42 33 -64 53 -22 21 -43 38 -46 38 -4 0 -27 25 -52
55 -25 31 -72 75 -104 99 -32 24 -78 62 -103 85 -46 44 -73 49 -78 16 -2 -17
-71 -71 -107 -83 -5 -2 -28 -12 -50 -21 -22 -10 -62 -21 -89 -25 -27 -3 -54
-10 -60 -15 -15 -12 -184 -5 -216 10 -74 32 -96 50 -117 90 -34 63 -31 79 15
78 53 0 337 8 547 16 151 6 207 3 344 -14 90 -11 170 -26 178 -33 8 -6 40 -12
71 -13 40 -1 58 -6 59 -16 2 -8 7 -68 13 -134 34 -408 53 -480 162 -628 68
-91 110 -125 231 -185 110 -54 143 -65 257 -82 41 -6 83 -13 92 -15 9 -1 44
10 77 26 33 16 67 29 74 29 8 0 22 9 32 20 10 11 27 20 37 20 26 0 31 21 13
56 -22 43 -19 52 30 100 39 37 50 42 75 37 27 -5 30 -3 30 21 0 15 -9 48 -20
74 -19 45 -40 118 -61 207 -5 22 -14 49 -19 60 -34 73 -60 141 -60 159 0 32
-19 46 -65 46 -51 0 -106 28 -123 62 -20 43 -34 138 -27 186 l7 45 131 -7 c72
-3 136 -11 141 -16 15 -15 53 -12 60 5 3 9 1 38 -5 66 -15 67 -8 82 33 74 18
-4 41 -14 50 -22 10 -9 24 -13 32 -10 11 4 14 36 15 159 1 84 5 215 9 290 6
110 4 139 -6 143 -8 3 -43 5 -79 5 -70 0 -187 17 -214 31 -10 5 -16 23 -17 56
-1 26 -5 98 -10 158 -5 61 -7 133 -4 162 l4 51 -59 6 c-32 3 -116 10 -188 15
-113 9 -231 23 -287 34 -9 2 -26 11 -37 21 -19 17 -21 17 -27 2 -4 -9 -4 -35
-1 -57 l5 -41 -31 6 c-18 3 -51 8 -74 12 l-43 7 -2 -99 c-1 -55 -2 -113 -2
-131 -1 -17 -4 -34 -8 -38 -3 -3 -47 1 -98 11 -68 12 -95 13 -103 5 -21 -21 8
-31 97 -34 72 -2 90 -6 101 -21 11 -15 22 -17 63 -11 52 7 80 -9 68 -41 -4
-11 -1 -15 15 -12 20 3 22 10 26 123 4 94 9 129 24 159 14 27 17 42 10 49 -15
15 -14 57 2 57 6 -1 44 -5 82 -10 39 -6 131 -12 205 -15 74 -3 155 -11 179
-18 l43 -12 -6 -55 c-3 -30 -8 -95 -12 -145 -7 -110 -19 -161 -42 -174 -15 -9
-15 -11 2 -30 11 -12 27 -21 37 -21 10 0 20 -4 24 -9 3 -5 29 -7 58 -4 28 3
77 0 107 -5 39 -7 59 -7 68 1 9 7 16 7 20 1 4 -6 22 -15 41 -20 l34 -9 1 -100
c0 -160 -6 -297 -15 -336 -8 -30 -15 -38 -40 -43 -17 -3 -35 -3 -41 0 -17 11
-426 15 -433 5 -3 -5 -1 -12 5 -16 6 -4 10 -43 9 -93 0 -73 16 -195 35 -252 2
-8 7 -27 10 -42 4 -15 21 -41 39 -58 28 -26 39 -30 88 -30 41 0 60 -5 71 -17
30 -36 97 -213 124 -329 35 -154 38 -174 27 -174 -5 0 -25 -13 -43 -30 -18
-16 -40 -31 -47 -31 -7 -1 -19 -2 -25 -3 -7 -1 -19 -6 -26 -13 -19 -18 -116
-35 -159 -28 -100 17 -224 84 -338 183 -76 66 -161 218 -198 352 -35 124 -50
439 -28 585 5 35 5 65 0 71 -5 6 -55 14 -111 18 -166 10 -199 15 -214 27 -16
13 -18 77 -4 164 5 33 12 96 15 140 3 44 10 109 16 145 14 79 17 160 7 160 -5
0 -8 9 -8 20 0 27 -29 25 -39 -2 -6 -16 -3 -30 7 -46 21 -32 6 -42 -47 -32
-33 6 -48 4 -58 -6 -21 -21 -26 -18 -73 37 -24 28 -68 68 -98 88 -30 20 -73
48 -96 63 -22 15 -47 28 -53 28 -7 0 -13 4 -13 10 0 11 -69 32 -120 36 -194
16 -225 15 -300 -5 -41 -12 -98 -27 -126 -34 -28 -8 -71 -23 -95 -34 -24 -12
-71 -33 -104 -48 -33 -15 -62 -30 -65 -34 -3 -3 -30 -27 -60 -52 -65 -55 -213
-205 -219 -222 -2 -7 -19 -30 -36 -52 -18 -22 -45 -65 -60 -95 -14 -30 -40
-80 -55 -110 -20 -37 -31 -78 -36 -124 -5 -47 -13 -75 -25 -87 -11 -11 -19
-22 -19 -25 0 -4 -16 -26 -35 -50 -19 -23 -35 -47 -35 -52 0 -6 -3 -12 -7 -14
-11 -4 -58 -68 -82 -112 -22 -38 -20 -56 3 -56 15 0 44 -39 80 -110 16 -30 45
-80 65 -110 20 -31 46 -76 59 -100 13 -25 52 -81 87 -125 36 -44 79 -107 96
-140 18 -33 46 -80 63 -105 32 -46 100 -189 93 -196 -10 -10 -293 -24 -486
-25 l-134 0 -23 28 c-13 15 -23 33 -24 40 0 6 -6 18 -13 25 -7 7 -39 67 -70
133 -32 66 -65 134 -74 150 -9 17 -32 59 -52 95 -43 80 -65 104 -86 96 -9 -3
-14 -10 -11 -15 3 -5 -29 -38 -71 -75 -58 -50 -79 -63 -89 -55 -7 6 -18 8 -25
4 -11 -8 -9 -40 10 -110 15 -61 23 -303 9 -311 -6 -4 -128 -9 -272 -11 -143
-2 -265 -4 -271 -4 -35 -2 -102 5 -111 13 -8 6 -11 62 -8 184 3 189 8 234 28
234 8 0 36 18 64 40 l50 40 20 -25 c21 -27 52 -34 48 -12 -3 24 -32 62 -95
124 -56 57 -60 64 -55 95 4 18 10 38 15 43 4 6 8 103 8 215 1 113 2 243 3 290
1 47 0 121 -1 165 -2 44 0 88 4 98 4 10 5 58 2 108 -3 51 -2 89 4 89 5 0 9 24
9 53 0 42 4 55 21 67 55 38 64 74 21 76 -38 2 -46 18 -28 53 12 23 15 45 10
84 -7 60 -8 326 -1 333 6 6 0 142 -8 153 -3 5 0 22 5 36 6 15 8 35 5 44 -7 24
-10 455 -2 468 8 13 119 22 368 29 l196 6 7 -23 c22 -81 30 -734 12 -989 -2
-19 -6 -87 -10 -150 -4 -63 -11 -144 -16 -180 -16 -110 -33 -404 -31 -545 0
-35 -7 -65 -25 -99 -26 -50 -23 -71 12 -64 10 2 22 18 28 40 7 24 38 66 86
116 53 55 88 104 117 163 24 46 59 102 78 124 19 22 35 48 35 58 0 11 10 32
23 47 12 16 30 40 40 54 10 14 23 25 30 23 8 -1 12 11 12 33 l0 35 49 -3 c26
-1 71 -9 100 -17 28 -8 96 -17 151 -20 55 -3 126 -8 158 -11 57 -6 71 2 43 25
-7 6 -70 14 -142 17 -84 4 -162 15 -224 30 -52 13 -104 24 -116 24 -25 0 -54
-29 -54 -55 0 -16 -6 -17 -57 -10 -106 13 -105 13 -118 -24 -6 -19 -29 -50
-51 -68 -23 -21 -53 -63 -74 -106 -39 -80 -66 -95 -64 -37 3 93 13 211 19 220
3 6 8 54 10 108 3 53 9 156 15 227 15 187 26 476 23 575 -2 47 -7 182 -11 300
l-7 215 -150 -2 c-82 -1 -219 -4 -303 -8 -127 -5 -157 -4 -170 8 -23 20 -78
31 -87 18z m2595 -1054 c69 -20 173 -71 194 -95 11 -12 23 -22 28 -22 17 0
117 -93 143 -132 14 -21 60 -73 101 -116 76 -77 76 -77 70 -122 -3 -25 -12
-97 -20 -161 -21 -163 -19 -169 54 -169 70 0 98 -14 116 -56 18 -42 12 -68
-13 -60 -39 11 -450 26 -845 31 -347 4 -418 2 -428 -10 -9 -10 -7 -16 7 -23
16 -10 16 -14 -6 -76 l-23 -66 21 -67 c20 -64 74 -143 98 -143 5 0 25 -7 42
-16 68 -34 279 -25 376 16 73 31 134 61 137 67 1 5 20 16 40 27 36 18 37 18
61 0 13 -11 50 -38 81 -62 31 -24 71 -59 89 -79 38 -42 54 -57 125 -122 50
-45 52 -49 41 -74 -7 -15 -15 -27 -19 -27 -4 0 -32 -25 -63 -55 -30 -30 -59
-55 -65 -55 -5 0 -21 -11 -35 -24 -31 -29 -147 -85 -190 -92 -18 -3 -41 -9
-52 -13 -131 -51 -260 -63 -460 -42 -103 11 -114 12 -148 13 -16 0 -24 4 -17
8 10 6 -48 29 -95 37 -11 2 -45 11 -75 20 -169 51 -281 139 -350 273 -58 113
-67 147 -79 290 -14 156 -12 244 3 277 8 15 17 59 20 97 7 74 38 176 66 216
10 14 29 48 43 75 14 28 37 61 51 74 14 14 26 29 26 35 0 17 209 227 272 274
31 23 65 42 74 42 9 0 28 6 42 14 33 18 157 66 170 66 5 0 36 9 69 20 71 23
206 39 248 28 17 -4 50 -13 75 -21z m-3236 -653 c90 -46 185 -116 211 -155 32
-49 55 -61 83 -46 123 68 153 81 161 69 4 -7 9 -69 11 -140 7 -232 6 -275 -6
-279 -7 -2 -27 22 -45 53 -17 31 -51 77 -74 101 l-42 44 -69 -65 c-38 -36 -75
-65 -81 -66 -7 0 -13 -4 -13 -8 0 -5 -19 -13 -42 -19 -24 -6 -76 -20 -117 -31
-79 -22 -173 -22 -261 0 -41 11 -100 54 -100 74 0 5 -12 23 -28 39 -15 17 -28
41 -29 55 -1 14 -5 42 -9 63 -4 23 1 72 12 124 15 74 22 88 45 102 16 9 33 26
38 38 18 40 102 65 239 71 54 2 74 -2 116 -24z"/>
<path d="M14925 3947 c-28 -19 -75 -47 -105 -63 -30 -16 -56 -32 -58 -36 -2
-5 -10 -8 -17 -8 -8 0 -20 -6 -27 -12 -8 -7 -21 -17 -29 -23 -9 -5 -36 -23
-60 -40 -24 -16 -54 -35 -65 -41 -12 -6 -52 -35 -88 -63 -37 -28 -72 -51 -77
-51 -6 0 -17 17 -25 37 -18 43 -159 182 -224 221 -52 31 -122 54 -163 53 -36
0 -168 -42 -185 -58 -6 -6 -20 -14 -30 -18 -24 -7 -79 -83 -88 -121 -4 -16
-11 -34 -16 -41 -5 -6 -8 -17 -7 -25 1 -7 -3 -26 -9 -41 -35 -84 15 -233 112
-335 40 -43 98 -77 206 -123 30 -12 69 -33 86 -46 17 -13 36 -23 42 -23 7 0
40 -17 74 -38 72 -43 113 -62 133 -62 8 0 37 -13 65 -30 28 -16 55 -30 60 -30
14 0 164 -100 222 -149 29 -23 58 -23 58 2 0 13 -51 57 -67 57 -4 1 -24 14
-43 30 -19 17 -38 30 -43 30 -5 0 -27 13 -50 28 -69 47 -229 122 -259 122 -6
0 -22 9 -38 20 -41 29 -144 86 -238 131 -157 74 -206 117 -259 229 -27 55 -37
89 -37 125 0 62 18 148 33 153 6 2 11 10 11 18 0 38 71 113 108 114 29 0 28
-18 -2 -31 -14 -7 -22 -17 -19 -25 3 -8 1 -14 -5 -14 -18 0 -23 -33 -7 -50 14
-16 20 -16 69 -2 103 28 201 -9 247 -96 13 -25 48 -72 77 -103 29 -31 61 -78
73 -104 11 -25 27 -49 35 -52 13 -5 80 22 94 38 3 3 23 13 45 22 22 8 63 28
92 44 29 15 78 41 110 57 72 35 75 37 143 78 30 18 66 35 80 38 21 5 25 11 22
39 -1 19 -17 64 -34 99 -34 72 -31 91 15 103 14 4 39 16 54 27 15 11 37 21 48
23 19 4 36 49 18 49 -5 0 -31 -15 -58 -33z"/>
<path d="M4295 3459 c-38 -5 -96 -16 -128 -24 -32 -8 -67 -15 -78 -15 -26 0
-35 -27 -16 -48 8 -9 18 -42 22 -72 12 -96 16 -470 6 -542 -11 -82 -7 -102 23
-94 11 3 55 11 96 17 41 6 82 14 90 19 9 4 36 11 60 15 25 4 61 15 80 25 19 9
50 20 69 24 29 5 101 39 235 109 39 21 96 86 130 149 23 43 28 65 29 127 1 55
-3 86 -16 110 -9 19 -17 40 -17 48 0 29 -43 73 -72 73 -16 0 -46 9 -66 19 -21
11 -73 27 -117 36 -43 9 -81 17 -84 19 -15 10 -184 13 -246 5z m165 -208 c76
-6 115 -14 141 -29 20 -11 47 -26 60 -34 62 -34 88 -76 109 -169 16 -70 9 -99
-27 -121 -15 -10 -35 -22 -43 -27 -58 -36 -335 -130 -450 -152 -104 -19 -104
-19 -110 26 -3 22 -10 46 -14 54 -7 10 -5 12 3 6 10 -5 12 2 10 26 -1 19 -1
120 0 226 l1 192 33 -5 c17 -3 50 -1 72 4 51 13 85 13 215 3z"/>
<path d="M18242 3378 c3 -7 27 -21 54 -32 69 -27 208 -120 257 -171 116 -120
227 -280 257 -373 7 -23 19 -47 27 -53 7 -6 13 -18 13 -26 0 -8 7 -27 15 -41
20 -38 45 -118 45 -148 0 -13 7 -41 15 -61 8 -19 15 -50 15 -69 0 -18 6 -63
14 -101 21 -101 18 -116 -24 -124 -19 -4 -89 -8 -155 -9 -66 0 -356 -2 -645
-4 -474 -3 -525 -5 -535 -20 -7 -12 -7 -19 1 -24 6 -4 13 -33 16 -64 4 -50 2
-57 -15 -62 -19 -5 -18 -7 11 -34 18 -17 32 -36 32 -44 0 -7 24 -47 53 -88 47
-68 59 -79 129 -113 70 -35 85 -39 169 -41 63 -2 101 2 118 11 30 15 30 15
-64 15 -95 0 -206 37 -258 87 -46 43 -117 148 -117 173 0 23 28 27 235 33 94
3 233 8 310 11 236 8 354 6 382 -8 24 -12 25 -18 29 -108 2 -52 6 -105 8 -117
10 -46 -34 -24 -119 62 -47 47 -89 85 -94 85 -9 0 -26 -39 -19 -44 13 -8 225
-204 231 -214 4 -6 25 -21 47 -32 46 -24 143 -112 185 -169 34 -46 49 -50 66
-19 10 18 8 24 -7 35 -63 44 -66 48 -70 146 -3 50 -3 155 -2 232 2 77 2 172 2
212 l-2 71 57 7 c32 4 63 10 71 15 20 13 22 83 4 152 -9 35 -18 89 -21 121 -5
71 -41 195 -88 311 -20 49 -38 103 -40 120 -2 17 -6 66 -10 108 l-7 76 54 7
c85 10 336 21 332 14 -5 -9 136 -29 209 -29 34 0 67 -4 74 -8 7 -4 14 -50 17
-117 3 -61 6 -111 6 -113 0 -2 20 11 44 28 25 16 49 30 54 30 17 0 82 57 74
65 -4 5 0 6 9 2 9 -3 21 -1 27 5 38 38 196 61 324 46 42 -5 94 -10 115 -12 21
-2 59 -10 84 -19 26 -9 71 -19 100 -23 93 -12 147 -46 263 -160 41 -41 119
-161 118 -184 0 -3 4 -15 9 -28 33 -87 58 -238 68 -417 1 -22 4 -26 10 -16 5
8 7 51 5 95 -3 45 -5 97 -4 117 1 44 -35 210 -54 247 -7 15 -16 42 -19 60 -4
17 -22 56 -42 84 -19 29 -35 57 -35 61 0 17 59 83 87 97 33 18 48 28 76 56 19
18 55 41 122 81 48 28 123 63 136 63 8 0 23 6 34 13 34 22 225 61 300 61 107
0 242 -9 255 -16 37 -19 109 -47 150 -59 25 -7 52 -18 60 -25 8 -6 32 -19 52
-27 60 -25 274 -259 301 -330 9 -24 37 -10 37 19 0 13 0 27 1 32 0 4 -10 9
-23 12 -13 4 -39 30 -61 60 -73 106 -173 206 -242 244 -36 20 -83 40 -103 45
-20 5 -71 21 -112 36 -57 21 -102 29 -186 34 -62 3 -125 3 -140 -1 -16 -3 -74
-11 -129 -17 -55 -5 -101 -15 -103 -21 -2 -5 -15 -10 -29 -10 -14 0 -36 -9
-50 -20 -15 -11 -34 -18 -43 -15 -9 3 -27 -4 -40 -15 -13 -12 -52 -34 -85 -50
-34 -16 -69 -38 -80 -50 -10 -11 -24 -20 -31 -20 -7 0 -24 -13 -37 -30 -14
-16 -33 -30 -42 -30 -9 0 -32 -16 -52 -35 -20 -19 -43 -35 -53 -35 -13 0 -93
51 -110 70 -9 10 -112 50 -129 50 -9 0 -50 11 -91 24 -99 31 -168 40 -325 39
-114 0 -135 -3 -168 -22 -21 -11 -43 -21 -50 -21 -7 0 -18 -5 -25 -12 -6 -6
-17 -13 -24 -14 -30 -4 -126 -55 -132 -69 -7 -19 -20 -19 -39 -1 -10 11 -13
36 -10 105 l4 91 -118 0 c-65 0 -138 6 -163 13 -28 7 -121 12 -240 12 l-195 0
-5 33 c-7 44 -24 45 -28 2 -2 -19 -8 -41 -14 -48 -8 -9 -6 -18 7 -32 20 -22
34 -110 17 -110 -6 0 -18 16 -27 35 -9 19 -23 39 -31 46 -8 6 -14 16 -14 21 0
10 -93 112 -165 180 -91 87 -329 206 -313 156z"/>
<path d="M22981 3141 c-22 -14 105 -49 204 -56 50 -3 102 -14 127 -25 23 -10
45 -17 49 -14 4 2 12 -3 19 -11 7 -8 20 -15 29 -15 36 0 193 -113 265 -189 22
-25 50 -55 62 -67 12 -12 24 -29 27 -38 8 -21 27 -21 27 0 0 27 -101 142 -186
213 -42 35 -161 111 -173 111 -6 0 -34 11 -61 24 -61 30 -117 40 -192 37 -48
-2 -109 10 -168 33 -8 3 -21 2 -29 -3z"/>
<path d="M21375 2613 c-10 -3 -28 -11 -40 -18 -11 -7 -35 -16 -53 -20 -18 -4
-45 -13 -60 -21 -15 -8 -33 -14 -39 -14 -7 0 -13 -6 -13 -14 0 -7 -12 -22 -27
-32 -38 -24 -70 -62 -90 -104 -9 -19 -19 -39 -21 -44 -3 -5 -1 -6 5 -3 5 3 23
-1 39 -9 27 -14 30 -14 46 6 31 39 112 87 158 94 106 15 128 16 175 5 47 -11
115 -44 195 -94 52 -33 106 -93 137 -152 29 -55 42 -63 63 -38 37 45 68 -10
72 -128 3 -74 1 -87 -12 -87 -19 0 -40 -19 -40 -37 0 -7 6 -13 14 -13 8 0 47
-30 87 -68 41 -37 100 -84 131 -105 74 -50 178 -145 178 -163 0 -8 4 -14 8
-14 12 0 32 22 32 36 0 16 -59 77 -106 107 -77 51 -90 69 -60 80 12 5 13 13 6
37 -5 18 -13 37 -18 43 -23 31 -56 140 -67 222 -1 11 -6 42 -10 70 -14 87 -2
295 16 295 5 0 7 11 5 25 -3 14 0 25 5 25 5 0 9 7 9 15 0 8 -5 15 -10 15 -6 0
-13 -7 -16 -15 -4 -8 -13 -15 -20 -15 -8 0 -17 -7 -20 -15 -4 -8 -10 -15 -15
-15 -5 0 -24 -16 -41 -36 -53 -60 -63 -59 -143 9 -38 33 -92 81 -120 107 -75
69 -104 81 -220 84 -55 2 -109 1 -120 -1z"/>
<path d="M5930 2435 c-25 -14 -53 -28 -62 -31 -10 -4 -18 -12 -18 -20 0 -7 -6
-11 -13 -8 -15 5 -63 -33 -59 -47 1 -5 -4 -9 -11 -9 -7 0 -29 -21 -48 -47 -19
-25 -41 -55 -48 -66 -18 -24 -21 -143 -5 -178 7 -13 16 -35 22 -49 8 -18 11
-20 11 -7 1 9 5 17 11 17 6 0 6 8 -1 23 -7 16 -6 32 6 60 8 20 20 37 25 37 6
0 10 5 10 11 0 19 114 119 149 130 52 17 248 7 290 -15 113 -60 226 -190 214
-248 -3 -16 -10 -28 -15 -28 -5 0 -6 -5 -2 -12 14 -22 44 31 44 78 0 25 7 60
15 80 15 37 14 41 -42 132 -21 35 -121 130 -153 147 -14 7 -44 16 -68 20 -24
4 -56 13 -70 21 -15 8 -44 14 -64 14 -21 0 -38 5 -38 10 0 17 -33 11 -80 -15z"/>
<path d="M19850 2349 c0 -5 -17 -9 -37 -9 -79 0 -128 -28 -224 -124 -42 -42
-75 -66 -89 -66 -19 0 -21 -4 -15 -22 24 -81 34 -160 40 -338 4 -107 6 -114
15 -67 4 21 4 72 0 115 -11 123 0 186 38 225 18 17 40 42 51 54 26 32 96 55
140 47 46 -9 115 -41 133 -62 23 -28 61 -134 72 -202 2 -14 7 -32 10 -40 3 -8
7 -35 10 -60 3 -25 10 -63 16 -85 16 -64 12 -163 -7 -195 -14 -24 -15 -37 -6
-75 6 -26 9 -72 7 -103 -6 -106 -35 -347 -45 -364 -12 -23 -11 -42 2 -71 11
-24 15 -25 93 -21 44 2 115 3 156 3 41 0 92 1 112 1 21 0 51 -6 67 -15 41 -21
74 -19 89 6 8 13 19 18 31 14 9 -3 32 2 51 11 l33 17 -29 12 c-38 16 -58 41
-50 61 5 14 16 16 66 11 52 -6 61 -4 70 13 14 27 1 31 -65 20 -57 -9 -147 -1
-320 31 -96 17 -103 24 -99 111 4 83 8 117 23 208 10 60 24 258 24 340 1 80
-14 269 -23 301 -6 19 -10 45 -10 59 0 65 -119 226 -185 250 -39 15 -145 21
-145 9z"/>
<path d="M21005 2283 c-4 -16 -10 -35 -14 -43 -4 -8 -6 -33 -4 -55 1 -22 3
-57 3 -78 -1 -26 3 -36 11 -32 8 5 9 1 5 -13 -9 -27 3 -94 15 -86 9 5 13 -14
10 -53 -1 -11 3 -24 9 -28 5 -3 8 -11 4 -16 -5 -9 53 -89 86 -117 8 -7 42 -27
75 -44 56 -29 67 -32 168 -32 61 -1 111 3 115 9 9 12 28 17 65 17 15 0 25 4
22 9 -9 13 -82 11 -91 -2 -5 -8 -37 -10 -103 -6 -82 4 -105 9 -158 36 -68 35
-149 116 -159 160 -4 14 -10 31 -14 36 -4 6 -10 26 -13 45 -13 73 -35 166 -42
184 -6 14 -5 17 3 12 8 -5 12 3 13 26 1 18 1 36 0 40 0 4 4 19 9 33 6 16 6 25
0 25 -5 0 -12 -12 -15 -27z"/>
<path d="M23872 2248 c-7 -7 -12 -20 -12 -29 0 -20 -47 -31 -124 -28 -29 1
-58 -1 -65 -5 -7 -4 -65 -8 -129 -7 -64 0 -144 -4 -177 -10 -33 -5 -103 -9
-155 -7 -178 5 -292 2 -388 -10 l-44 -5 7 -45 c4 -24 9 -50 11 -57 3 -7 -1
-19 -9 -26 -12 -12 -10 -16 14 -31 16 -10 35 -32 42 -50 25 -59 59 -86 137
-114 69 -24 83 -26 184 -20 71 4 113 11 118 19 9 15 -18 23 -35 10 -23 -18
-188 -6 -252 18 -63 23 -145 97 -145 130 0 14 5 15 38 6 26 -7 77 -5 170 5 79
8 161 11 205 7 39 -4 77 -3 83 2 14 11 70 1 84 -16 8 -9 6 -17 -5 -28 -27 -27
-16 -38 15 -16 l29 22 56 -34 c31 -19 65 -42 75 -51 11 -10 22 -18 25 -18 11
0 145 -103 145 -112 0 -4 4 -8 8 -8 4 0 39 -29 77 -65 39 -36 76 -65 83 -65
27 0 9 30 -44 76 -31 27 -80 69 -108 93 -28 25 -96 74 -151 110 -94 61 -114
77 -115 92 0 7 42 19 145 41 l60 13 -3 55 -2 55 40 17 c22 9 40 12 40 7 0 -5
17 -9 38 -9 31 0 41 5 49 23 6 12 7 31 3 42 -4 11 -6 23 -3 28 6 11 -2 8 -15
-5z"/>
<path d="M5710 1930 c0 -16 46 -98 69 -123 80 -85 384 -77 518 15 43 29 70 64
58 76 -3 4 -9 2 -13 -4 -13 -18 -87 -71 -109 -78 -13 -4 -23 -10 -23 -14 0 -4
-12 -8 -27 -9 -16 -1 -57 -6 -93 -10 -36 -5 -79 -5 -95 -2 -17 4 -55 7 -85 8
-67 1 -113 33 -149 103 -12 25 -29 45 -37 45 -8 0 -14 -3 -14 -7z"/>
<path d="M22226 1475 c-14 -24 -26 -47 -26 -51 0 -17 -76 -98 -129 -137 -31
-23 -59 -47 -64 -54 -8 -13 -99 -58 -137 -68 -14 -3 -34 -10 -45 -15 -11 -5
-56 -17 -100 -27 -109 -23 -247 -21 -350 7 -44 12 -107 28 -140 36 -84 20
-271 102 -322 141 -24 18 -47 33 -51 33 -4 0 -32 22 -62 49 -30 27 -58 47 -62
45 -14 -9 -9 -54 6 -54 20 0 45 -32 29 -37 -7 -3 -13 -11 -13 -18 0 -15 -27
-28 -41 -19 -5 3 -9 -11 -9 -31 0 -28 -5 -38 -19 -42 -16 -4 -18 -8 -9 -23 8
-13 8 -33 -2 -78 -15 -71 -15 -75 -1 -80 5 -2 13 17 16 41 12 76 15 77 107 16
89 -59 101 -65 193 -102 160 -65 347 -110 454 -110 31 0 99 5 151 12 52 6 115
13 140 16 59 7 195 52 210 71 7 8 18 14 25 14 7 0 25 12 40 26 16 14 45 35 65
45 21 11 46 29 55 39 10 11 24 20 32 20 8 0 21 7 29 15 9 8 24 15 35 15 10 0
19 5 19 10 0 20 26 9 95 -40 141 -99 301 -161 515 -200 68 -13 208 -11 234 2
14 7 16 7 11 -2 -6 -9 1 -10 26 -4 19 4 62 6 97 5 35 -1 69 2 75 7 24 19 108
62 121 62 8 0 54 20 102 45 49 25 94 45 99 45 6 0 32 23 58 50 27 28 51 50 54
50 3 0 30 23 61 50 31 28 60 50 65 50 12 0 77 53 77 63 0 5 10 17 23 27 l22
18 -25 10 c-32 13 -67 46 -75 72 -7 22 -25 26 -43 8 -7 -7 -8 -17 -1 -30 8
-15 6 -18 -17 -18 -17 0 -28 -6 -31 -20 -3 -11 -8 -20 -12 -20 -3 0 -30 -23
-60 -50 -54 -51 -135 -110 -150 -110 -5 0 -14 -7 -21 -15 -7 -8 -28 -18 -49
-21 -34 -7 -77 -23 -111 -43 -64 -37 -119 -49 -225 -49 -135 0 -326 22 -367
43 -17 8 -37 15 -45 15 -66 0 -383 204 -470 303 l-32 36 -25 -44z"/>
<path d="M15450 633 l-32 -36 -57 27 -56 27 -70 -16 c-39 -9 -83 -18 -98 -20
-16 -2 -39 -11 -52 -19 -14 -9 -29 -16 -34 -16 -13 0 -137 -77 -177 -110 -18
-14 -42 -33 -55 -42 -38 -30 -69 -115 -62 -173 12 -106 81 -134 338 -140 145
-2 316 12 344 29 25 16 -10 25 -83 20 -148 -9 -236 -4 -311 15 -111 29 -133
49 -155 136 -19 77 -2 129 53 156 23 12 45 26 48 32 17 26 192 72 267 70 83
-2 103 -31 57 -85 -24 -29 -33 -58 -17 -58 13 0 92 61 92 70 0 12 52 60 65 60
5 0 19 14 30 30 11 16 23 30 28 30 15 0 6 30 -12 40 -16 8 -25 4 -51 -27z"/>
<path d="M18809 578 c-28 -60 -54 -103 -65 -110 -6 -4 -17 -21 -24 -38 -7 -16
-16 -30 -21 -30 -4 0 -11 -10 -15 -22 -4 -13 -19 -39 -34 -58 -59 -76 -42
-112 35 -74 28 13 55 24 62 24 7 0 16 6 20 14 4 7 25 19 45 25 21 7 40 16 43
21 3 4 28 20 57 35 28 15 74 42 101 61 44 31 52 33 65 20 20 -20 9 -57 -29
-101 -32 -36 -33 -65 -4 -65 11 0 15 -6 10 -19 -4 -13 2 -23 20 -35 29 -19 26
-20 155 56 30 18 58 32 62 31 3 -1 12 4 18 12 7 8 18 15 25 15 7 0 18 6 24 14
18 22 127 84 153 87 42 6 50 -8 28 -49 -29 -53 -63 -98 -99 -131 -17 -16 -31
-32 -31 -36 0 -4 -8 -13 -17 -20 -14 -11 -15 -16 -4 -28 21 -26 69 -32 92 -11
10 9 19 25 19 35 0 10 8 24 18 31 9 7 29 29 44 48 34 45 71 88 102 120 13 14
26 43 30 66 6 40 5 41 -33 52 -52 16 -58 15 -121 -11 -78 -32 -120 -56 -120
-67 0 -6 -10 -10 -22 -11 -13 0 -45 -13 -73 -29 -118 -68 -128 -66 -119 27 7
76 -6 100 -48 90 -72 -18 -99 -26 -127 -40 -17 -8 -45 -19 -63 -23 -18 -3 -49
-15 -68 -25 -35 -19 -70 -25 -70 -12 0 3 23 33 51 65 42 48 49 61 39 73 -7 8
-24 15 -37 15 -16 0 -27 7 -30 20 -8 30 -27 24 -44 -12z"/>
<path d="M23498 569 c-7 -5 -29 -9 -48 -9 -48 0 -103 -17 -127 -38 -27 -23
-114 -96 -122 -102 -25 -19 -64 -110 -68 -157 -4 -46 -1 -58 24 -92 45 -64
106 -84 270 -87 68 -2 127 -5 133 -9 5 -3 10 -3 10 2 0 4 36 7 79 5 71 -3 133
10 118 25 -3 2 -59 7 -124 9 -156 5 -259 20 -287 41 -13 10 -36 35 -51 57 -24
33 -29 51 -31 108 -2 67 -1 71 33 109 19 21 40 39 45 39 5 0 21 11 36 25 15
14 38 26 52 26 14 1 41 3 60 5 42 4 94 -11 111 -32 10 -12 7 -21 -17 -47 -46
-50 -56 -65 -49 -77 4 -6 42 25 91 73 76 73 84 85 76 106 -8 22 -13 24 -105
26 -53 1 -102 -2 -109 -6z"/>
<path d="M21579 526 c-14 -7 -37 -16 -52 -20 -27 -7 -35 -24 -17 -42 6 -6 -3
-25 -25 -52 -19 -24 -40 -57 -47 -73 -7 -16 -17 -29 -23 -29 -12 -1 -40 -38
-49 -67 -4 -14 -21 -26 -44 -34 -20 -6 -41 -15 -46 -20 -6 -5 -39 -9 -74 -9
-55 0 -63 -2 -60 -17 4 -22 57 -29 87 -13 16 8 26 7 46 -6 20 -13 31 -14 53
-6 23 10 132 21 222 23 14 0 31 5 37 11 24 20 1 29 -57 22 -37 -4 -60 -2 -64
4 -4 6 11 29 34 52 22 22 40 45 40 50 0 10 37 67 51 80 3 3 16 23 29 45 33 55
45 65 74 65 40 0 31 18 -11 25 -21 3 -46 10 -55 16 -22 11 -18 12 -49 -5z"/>
<path d="M17285 494 c-11 -3 -46 -10 -77 -16 -32 -7 -58 -15 -58 -19 0 -3 -26
-12 -59 -19 -32 -7 -87 -29 -122 -49 -104 -59 -136 -153 -71 -206 56 -44 120
-72 182 -78 76 -8 248 17 304 44 22 10 47 19 55 19 9 0 25 7 35 15 24 18 7 20
-44 4 -37 -11 -323 -21 -353 -13 -26 8 -49 72 -42 115 7 39 40 69 120 108 35
17 160 45 190 42 81 -6 155 -40 189 -84 28 -37 24 -96 -8 -124 -29 -25 -32
-33 -13 -33 17 0 63 49 71 76 7 23 -23 102 -45 120 -8 7 -43 26 -79 44 -36 17
-72 35 -80 40 -23 11 -72 18 -95 14z"/>
</g>
</svg>
